<svg width="32" height="32" viewBox="0 0 32 32" fill="none" xmlns="http://www.w3.org/2000/svg">
<path d="M27 7H5C3.34315 7 2 8.34315 2 10V26C2 27.6569 3.34315 29 5 29H27C28.6569 29 30 27.6569 30 26V10C30 8.34315 28.6569 7 27 7Z" stroke="white" stroke-width="2" stroke-linejoin="round"/>
<path d="M21 18H11M9 7V5C9 4.46957 9.21071 3.96086 9.58579 3.58579C9.96086 3.21071 10.4696 3 11 3H21C21.5304 3 22.0391 3.21071 22.4142 3.58579C22.7893 3.96086 23 4.46957 23 5V7H9ZM16 13V23V13Z" stroke="white" stroke-width="2" stroke-linecap="round" stroke-linejoin="round"/>
</svg>
